<svg height="369.333" viewBox="0 0 277 277" width="369.333" xmlns="http://www.w3.org/2000/svg"><path d="m165 9.5v7.5h15v-15h-15zm-71 21v7.5h15v-15h-15zm46 14v7.5h3.5c3.4 0 3.5-.1 3.5-4v-4h4.5c4.5 0 4.5 0 4.5-3.5v-3.5h-16z"/><path d="m149 54v8h15v-16h-15zm60 4v8h14v-16h-14zm-36 3v8h16v-16h-16z"/><path d="m134.8 57.7c-3.2 3.3-3.7 4.5-4 9.3l-.3 5.5-5.6.3c-4.1.2-6.2.8-7.4 2.2-1.1 1.2-1.3 2-.7 2 .8 0 1.2 3 1.2 9.6v9.5l-10.5-.2c-11.3-.2-13.5.6-13.5 4.7 0 1.7-.7 2.4-2.7 2.7-2.6.4-2.6.4.5.6l3.2.1v19h-18v-3.6c0-2.1-.4-3.3-1-2.9-.5.3-1 4.6-1 9.6v8.9h-8.8c-8 0-9.1.2-11 2.3-1.7 1.8-2.2 3.6-2.2 8v5.7h-5.8c-5.6 0-5.9.1-10.7 5l-5 5 57.5 57.5c31.6 31.6 57.8 57.4 58.2 57.3.4-.2 25.7-25.2 56.1-55.6l55.4-55.2h-8.7v-16.6l-4.8-4.7-4.8-4.7h-17.4v-8.9c0-5-.4-9.3-1-9.6-.6-.4-1 1.3-1 4.4v5.1h-19v-19h5.1c3.1 0 4.8-.4 4.4-1-.3-.6-1.9-1-3.6-1-2.5 0-2.9-.4-2.9-2.8 0-1.9-1.2-4-3.8-6.5l-3.8-3.7h-19.4v-19.4l-6.2-6.3-6.3-6.3h-18.5v-10h-4.3c-3.6 0-4.8.6-7.9 3.7zm34.7 53.3 22 22h16l13.4 13.4 13.4 13.5-13.9 13.5-13.9 13.5-7.5.1h-7.5l-21.5 21.5c-11.8 11.8-21.9 21.5-22.5 21.5s-10.7-9.7-22.5-21.5l-21.5-21.5h-16.7l-13.9-13.2c-7.7-7.2-13.8-13.7-13.7-14.3.2-.6 6.2-6.8 13.4-13.8l13.1-12.7h16.8l22-22c12.1-12.1 22.2-22 22.5-22s10.4 9.9 22.5 22z"/><path d="m141.7 101.8-3.7 3.8 4 3.9 4 3.9 4-3.9 4-3.9-3.7-3.8c-2-2.1-4-3.8-4.3-3.8s-2.3 1.7-4.3 3.8zm21 18-3.7 3.8 4.3 4.2 4.3 4.2 4.2-4.3 4.2-4.3-3.8-3.7c-2.1-2-4.2-3.7-4.8-3.7-.5 0-2.7 1.7-4.7 3.8zm-44.2 1.2-3.9 4 4.2 4.3 4.2 4.2 4-4 4-4.1-4.3-4.2-4.3-4.2zm50.5 25.6c0 2.3.3 2.5 3.3 2.2 2.4-.2 3.3-.8 3.5-2.6.3-1.9-.1-2.2-3.2-2.2-3.2 0-3.6.3-3.6 2.6zm28 1.4v4.1l-3.4-.6c-5-1-9.2 1.6-10.7 6.4-3 10 4.6 18.6 11.9 13.5 1.2-.8 2.2-1 2.2-.5 0 .6 1.6 1.1 3.5 1.1h3.5v-28h-3.5c-3.4 0-3.5.1-3.5 4zm-.2 13.7c-.3 5.2-.5 5.8-2.6 6.1-3.4.5-5.2-1.5-5.2-5.7 0-4.4 1.4-6.1 5.2-6.1 2.9 0 2.9 0 2.6 5.7zm9.9-15.7c.3 1.1.7 2 .9 2s.4-.9.4-2-.4-2-.9-2-.7.9-.4 2zm3.3.5c0 1.7.2 1.7 1 .5.9-1.3 1.1-1.3 2 0 .8 1.2 1 1.2 1-.5 0-1.4-.6-2.1-2-2.1s-2 .7-2 2.1zm-118 12v13.5h9.5c9.5 0 9.5 0 9.5-2.5 0-2.4-.2-2.5-6.5-2.5h-6.5v-22h-6zm58.4-6.5c-6.6 2.6-8.5 12-3.6 17 5.3 5.3 15.4 5.1 16-.3.3-2.7-1.1-3.7-2.3-1.7-.9 1.4-6.8 1.3-8.3-.2-.7-.7-1.2-2.8-1.2-4.8s.5-4.1 1.2-4.8c1.5-1.5 7.4-1.6 8.3-.2 1.1 1.8 2.5 1 2.5-1.5 0-3.9-7-5.8-12.6-3.5zm-33.4 8.5c0 7.2.3 8.8 2 10.5 2.4 2.4 5.1 2.5 9 .5 1.7-.9 3-1.1 3-.5 0 .5 1.4 1 3 1h3v-20h-6v7.4c0 7.1-.1 7.4-2.6 8-4.2 1.1-5.4-.8-5.4-8.5v-6.9h-6zm52 1.5v10h7v-20h-7zm-53 28.5-3.4 3.5 3.9 4c2.1 2.2 4.4 4 5 4s2.9-1.8 5-4l3.9-4-3.4-3.5c-1.9-1.9-4.3-3.5-5.5-3.5s-3.6 1.6-5.5 3.5zm24.7-.7-2.7 2.8 4.3 4.2 4.3 4.2 4.4-4.5 4.4-4.5-2.4-2.5c-3.3-3.6-8.7-3.4-12.3.3zm27 1-3.7 3.8 4.3 4.2 4.3 4.2 4.2-4.3 4.2-4.3-3.8-3.7c-2.1-2-4.2-3.7-4.8-3.7-.5 0-2.7 1.7-4.7 3.8zm-36.5 13.5-4.2 4.3 4.3 4.2 4.3 4.2 4.4-4.5 4.4-4.5-3.9-4c-2.1-2.2-4.2-4-4.5-4s-2.5 1.9-4.8 4.3zm22.3-.3-3.9 4 4.5 4.5 4.5 4.5 4.4-4.5 4.4-4.5-3.9-4c-2.1-2.2-4.4-4-5-4s-2.9 1.8-5 4zm-10.4 11.4c-2.4 2.4-4 4.9-3.7 5.4.3.6 2.3 2.4 4.5 4.1l3.8 3 4.1-4.2 4.2-4.3-4.3-4.2-4.3-4.2zm-29.1-152.4v7h14v-14h-14zm-46 2v8h15v-16h-15zm32 21.5v7.5h15v-15h-15zm80 0v7.5h16v-15h-16zm-170 6v7.5h14v-15h-14zm66 0v7.5h16v-15h-16zm131 6.5v8h15v-16h-15zm36 3v8h15v-16h-15zm-164 11.5v7.5h14v-15h-14zm125 7v7.5h15v-15h-15zm-146 5v7.5h15v-15h-15zm167 3.5v8h14v-16h-14zm-188 13v7h14v-14h-14zm215 13v8h14v-16h-14z"/></svg>